<svg width="25" height="25" viewBox="0 0 25 25" fill="none" xmlns="http://www.w3.org/2000/svg">
<path d="M3.75 12.5C3.75 12.1685 3.6183 11.8505 3.38388 11.6161C3.14946 11.3817 2.83152 11.25 2.5 11.25H1.25C0.918479 11.25 0.600537 11.3817 0.366116 11.6161C0.131696 11.8505 0 12.1685 0 12.5C0 12.8315 0.131696 13.1495 0.366116 13.3839C0.600537 13.6183 0.918479 13.75 1.25 13.75H2.5C2.83152 13.75 3.14946 13.6183 3.38388 13.3839C3.6183 13.1495 3.75 12.8315 3.75 12.5ZM4.55 18.75L3.6625 19.6375C3.42969 19.8717 3.29901 20.1885 3.29901 20.5188C3.29901 20.849 3.42969 21.1658 3.6625 21.4C3.8967 21.6328 4.21352 21.7635 4.54375 21.7635C4.87398 21.7635 5.1908 21.6328 5.425 21.4L6.3125 20.5125C6.51728 20.2734 6.62429 19.9658 6.61214 19.6512C6.59999 19.3366 6.46957 19.0382 6.24695 18.8155C6.02434 18.5929 5.72591 18.4625 5.41132 18.4504C5.09672 18.4382 4.78913 18.5452 4.55 18.75ZM12.5 3.75C12.8315 3.75 13.1495 3.6183 13.3839 3.38388C13.6183 3.14946 13.75 2.83152 13.75 2.5V1.25C13.75 0.918479 13.6183 0.600537 13.3839 0.366116C13.1495 0.131696 12.8315 0 12.5 0C12.1685 0 11.8505 0.131696 11.6161 0.366116C11.3817 0.600537 11.25 0.918479 11.25 1.25V2.5C11.25 2.83152 11.3817 3.14946 11.6161 3.38388C11.8505 3.6183 12.1685 3.75 12.5 3.75ZM19.575 6.675C19.9029 6.67362 20.2172 6.54343 20.45 6.3125L21.3375 5.425C21.4684 5.31294 21.5746 5.17504 21.6497 5.01996C21.7247 4.86488 21.7668 4.69597 21.7735 4.52382C21.7801 4.35167 21.7511 4.18 21.6883 4.0196C21.6255 3.85919 21.5301 3.71351 21.4083 3.59169C21.2865 3.46987 21.1408 3.37455 20.9804 3.3117C20.82 3.24886 20.6483 3.21985 20.4762 3.2265C20.304 3.23315 20.1351 3.27531 19.98 3.35034C19.825 3.42537 19.6871 3.53165 19.575 3.6625L18.75 4.55C18.5172 4.7842 18.3865 5.10102 18.3865 5.43125C18.3865 5.76148 18.5172 6.0783 18.75 6.3125C18.9704 6.5317 19.2645 6.66094 19.575 6.675ZM4.575 6.3125C4.80783 6.54343 5.12208 6.67362 5.45 6.675C5.61451 6.67595 5.77759 6.64442 5.92988 6.58221C6.08218 6.52001 6.2207 6.42835 6.3375 6.3125C6.57031 6.0783 6.70099 5.76148 6.70099 5.43125C6.70099 5.10102 6.57031 4.7842 6.3375 4.55L5.45 3.6625C5.33427 3.54513 5.19656 3.45171 5.04473 3.38756C4.89289 3.32341 4.72991 3.2898 4.56509 3.28864C4.40026 3.28747 4.23683 3.31879 4.0841 3.38079C3.93138 3.4428 3.79237 3.53427 3.675 3.65C3.55763 3.76573 3.46421 3.90344 3.40006 4.05527C3.33591 4.20711 3.3023 4.37009 3.30114 4.53491C3.29879 4.86779 3.42878 5.18796 3.6625 5.425L4.575 6.3125ZM23.75 11.25H22.5C22.1685 11.25 21.8505 11.3817 21.6161 11.6161C21.3817 11.8505 21.25 12.1685 21.25 12.5C21.25 12.8315 21.3817 13.1495 21.6161 13.3839C21.8505 13.6183 22.1685 13.75 22.5 13.75H23.75C24.0815 13.75 24.3995 13.6183 24.6339 13.3839C24.8683 13.1495 25 12.8315 25 12.5C25 12.1685 24.8683 11.8505 24.6339 11.6161C24.3995 11.3817 24.0815 11.25 23.75 11.25ZM20.45 18.75C20.2125 18.6179 19.9385 18.5668 19.6693 18.6044C19.4002 18.642 19.1507 18.7663 18.9585 18.9585C18.7663 19.1507 18.642 19.4002 18.6044 19.6693C18.5668 19.9385 18.6179 20.2125 18.75 20.45L19.6375 21.3375C19.8717 21.5703 20.1885 21.701 20.5188 21.701C20.849 21.701 21.1658 21.5703 21.4 21.3375C21.6328 21.1033 21.7635 20.7865 21.7635 20.4562C21.7635 20.126 21.6328 19.8092 21.4 19.575L20.45 18.75ZM12.5 5.625C11.1403 5.625 9.81104 6.02821 8.68045 6.78365C7.54987 7.53908 6.66868 8.61281 6.14833 9.86905C5.62798 11.1253 5.49183 12.5076 5.7571 13.8412C6.02237 15.1749 6.67715 16.3999 7.63864 17.3614C8.60013 18.3228 9.82513 18.9776 11.1588 19.2429C12.4924 19.5082 13.8747 19.372 15.1309 18.8517C16.3872 18.3313 17.4609 17.4501 18.2164 16.3195C18.9718 15.189 19.375 13.8597 19.375 12.5C19.3717 10.6777 18.6463 8.93089 17.3577 7.64229C16.0691 6.35369 14.3223 5.6283 12.5 5.625ZM12.5 16.875C11.6347 16.875 10.7888 16.6184 10.0694 16.1377C9.34991 15.6569 8.78916 14.9737 8.45803 14.1742C8.12689 13.3748 8.04025 12.4951 8.20906 11.6465C8.37787 10.7978 8.79455 10.0183 9.40641 9.40641C10.0183 8.79455 10.7978 8.37787 11.6465 8.20906C12.4951 8.04025 13.3748 8.12689 14.1742 8.45803C14.9737 8.78916 15.6569 9.34991 16.1377 10.0694C16.6184 10.7888 16.875 11.6347 16.875 12.5C16.875 13.6603 16.4141 14.7731 15.5936 15.5936C14.7731 16.4141 13.6603 16.875 12.5 16.875ZM12.5 21.25C12.1685 21.25 11.8505 21.3817 11.6161 21.6161C11.3817 21.8505 11.25 22.1685 11.25 22.5V23.75C11.25 24.0815 11.3817 24.3995 11.6161 24.6339C11.8505 24.8683 12.1685 25 12.5 25C12.8315 25 13.1495 24.8683 13.3839 24.6339C13.6183 24.3995 13.75 24.0815 13.75 23.75V22.5C13.75 22.1685 13.6183 21.8505 13.3839 21.6161C13.1495 21.3817 12.8315 21.25 12.5 21.25Z" fill="black"/>
</svg>
