<svg width="19" height="18" viewBox="0 0 19 18" fill="none" xmlns="http://www.w3.org/2000/svg">
<path d="M17.9631 16.2848L14.5642 12.8958C15.6608 11.4988 16.2558 9.77351 16.2536 7.99743C16.2536 6.41569 15.7846 4.86947 14.9058 3.5543C14.027 2.23913 12.778 1.21408 11.3167 0.608771C9.85533 0.00346513 8.24731 -0.15491 6.69597 0.153672C5.14462 0.462254 3.71961 1.22393 2.60115 2.34239C1.48269 3.46085 0.721013 4.88586 0.41243 6.43721C0.103848 7.98855 0.262224 9.59657 0.86753 11.0579C1.47284 12.5192 2.49789 13.7683 3.81305 14.647C5.12822 15.5258 6.67444 15.9948 8.25618 15.9948C10.0323 15.9971 11.7575 15.402 13.1546 14.3054L16.5435 17.7043C16.6364 17.798 16.747 17.8724 16.8688 17.9231C16.9907 17.9739 17.1213 18 17.2533 18C17.3853 18 17.5159 17.9739 17.6377 17.9231C17.7596 17.8724 17.8701 17.798 17.9631 17.7043C18.0568 17.6114 18.1311 17.5008 18.1819 17.379C18.2326 17.2572 18.2588 17.1265 18.2588 16.9945C18.2588 16.8626 18.2326 16.7319 18.1819 16.6101C18.1311 16.4883 18.0568 16.3777 17.9631 16.2848ZM2.25812 7.99743C2.25812 6.81112 2.6099 5.65146 3.26897 4.66508C3.92805 3.6787 4.86482 2.90991 5.96082 2.45593C7.05683 2.00196 8.26284 1.88317 9.42635 2.11461C10.5899 2.34605 11.6586 2.91731 12.4975 3.75615C13.3363 4.595 13.9076 5.66375 14.139 6.82726C14.3704 7.99077 14.2517 9.19678 13.7977 10.2928C13.3437 11.3888 12.5749 12.3256 11.5885 12.9846C10.6022 13.6437 9.44249 13.9955 8.25618 13.9955C6.6654 13.9955 5.13977 13.3636 4.01491 12.2387C2.89006 11.1138 2.25812 9.58821 2.25812 7.99743Z" fill="black"/>
</svg>
